<svg xmlns="http://www.w3.org/2000/svg" width="100" height="100" viewBox="0 0 100 100" fill="none"><path d="M75.059 16.6577C70.4548 16.6577 66.7257 20.3869 66.7257 24.991V74.991C66.7257 79.5952 70.4548 83.3244 75.059 83.3244H83.3923C87.9965 83.3244 91.7257 79.5952 91.7257 74.991V24.991C91.7257 20.3869 87.9965 16.6577 83.3923 16.6577H75.059ZM45.8923 33.3244C41.2882 33.3244 37.559 37.0535 37.559 41.6577V74.991C37.559 79.5952 41.2882 83.3244 45.8923 83.3244H54.2257C58.8298 83.3244 62.559 79.5952 62.559 74.991V41.6577C62.559 37.0535 58.8298 33.3244 54.2257 33.3244H45.8923ZM16.7257 49.991C12.1215 49.991 8.39233 53.7202 8.39233 58.3244V74.991C8.39233 79.5952 12.1215 83.3244 16.7257 83.3244H25.059C29.6632 83.3244 33.3923 79.5952 33.3923 74.991V58.3244C33.3923 53.7202 29.6632 49.991 25.059 49.991H16.7257Z" fill="#7864F1"></path></svg>