<svg xmlns="http://www.w3.org/2000/svg" width="60" height="60" viewBox="0 0 60 60" fill="none"><path d="M17.8001 8.75H40.0001C50.0001 8.75 55.0001 15 55.0001 23.75V30C55.0001 42.5 47.5001 51.25 33.7501 51.25H9.8501L12.5001 40.625H31.1001C40.0001 40.625 44.3751 35 44.3751 27.35V26.875C44.3751 22.5 42.5001 19.375 36.8751 19.375H15.1501L17.8001 8.75Z" fill="#CBFFD9"></path><path d="M31.025 25.5752H11.75C9.05002 25.5752 6.70002 27.4252 6.02502 30.0252L5.40002 32.5752C5.17502 33.5002 5.87502 34.4002 6.82502 34.4002H26.1C28.8 34.4002 31.15 32.5502 31.825 29.9502L32.45 27.4002C32.7 26.4752 31.975 25.5752 31.025 25.5752Z" fill="#CBFFD9"></path></svg>