<svg xmlns="http://www.w3.org/2000/svg" width="60" height="60" viewBox="0 0 60 60" fill="none"><path d="M11.25 26.2251V41.0751C11.25 41.8501 11.6 42.6001 12.175 43.1001L25.575 54.5751C27.325 56.0751 30 54.8251 30 52.5501V42.3002H42.275C44.65 42.3002 45.85 39.4251 44.175 37.7251L30 23.5502H13.925C12.45 23.5252 11.25 24.7251 11.25 26.2251Z" fill="#FFCDCD"></path><path d="M46.075 4.7749H17.725C15.35 4.7749 14.15 7.64987 15.825 9.34987L30 23.5249H46.075C47.55 23.5249 48.75 22.3249 48.75 20.8499V7.44992C48.75 5.97492 47.55 4.7749 46.075 4.7749Z" fill="#FFCDCD"></path></svg>