<svg xmlns="http://www.w3.org/2000/svg" width="26" height="26" viewBox="0 0 26 26" fill="none"><path d="M12.0992 0.868584C12.4629 0.114248 13.5371 0.114249 13.9008 0.868585L17.402 8.13144C17.5003 8.33526 17.6647 8.49973 17.8686 8.59799L25.1314 12.0992C25.8858 12.4629 25.8858 13.5371 25.1314 13.9008L17.8686 17.402C17.6647 17.5003 17.5003 17.6647 17.402 17.8686L13.9008 25.1314C13.5371 25.8858 12.4629 25.8858 12.0992 25.1314L8.59798 17.8686C8.49973 17.6647 8.33526 17.5003 8.13144 17.402L0.868584 13.9008C0.114248 13.5371 0.114249 12.4629 0.868585 12.0992L8.13144 8.59798C8.33526 8.49973 8.49973 8.33526 8.59799 8.13144L12.0992 0.868584Z" fill="#091036"></path></svg>