<svg xmlns="http://www.w3.org/2000/svg" width="60" height="60" viewBox="0 0 60 60" fill="none"><path d="M37.675 44.7001L35.15 50.2501C34.5 51.6501 33.5499 52.8751 32.2749 53.7251C30.9749 54.6001 29.275 54.6751 27.925 53.8251C23.825 51.2251 14.8751 44.5502 9.45007 32.9752C9.25007 32.5752 9.79999 32.1752 10.15 32.4252C11.575 33.4252 13.0999 34.1251 14.7749 34.5251C15.7999 34.7501 16.85 34.8502 17.85 34.8502C22.5 34.8502 26.7 32.4751 29.5 30.4251C30.325 29.8251 31.4249 29.7001 32.2749 30.2251C35.0749 31.9751 36.9501 34.0752 37.8751 36.4502C39.4751 40.6502 37.725 44.5251 37.675 44.7001Z" fill="#FFF0CB"></path><path d="M42.125 45.1252C41.925 45.3502 41.5251 45.1001 41.6251 44.8251C42.7251 41.1751 44.15 31.5501 31.4 25.4501C30.625 25.0751 30.05 24.3752 29.95 23.5252C28.4 9.62515 40.3751 7.12514 40.3751 7.12514C41.3501 6.92514 42.3751 6.92514 43.3251 7.20014C46.0251 7.92514 48.775 8.92515 51.55 10.2751C53.925 11.4251 55.3 13.9252 54.95 16.5502C54.125 22.7502 51.375 34.7002 42.125 45.1252Z" fill="#FFF0CB"></path><path d="M26.3998 25.5252L26.4749 26.0252C26.6499 26.9752 26.2498 27.9502 25.4498 28.4502C20.0748 31.8252 11.2748 34.3752 5.8998 19.6002C5.3998 18.2502 5.09984 17.2502 4.99984 15.8002C4.87484 13.9002 5.94983 11.7252 7.64983 10.9252C12.0498 8.87522 21.3499 5.30022 32.5749 5.62522C33.0749 5.65022 33.2499 6.30021 32.8499 6.57521C28.5249 9.87521 24.7998 15.8252 26.3998 25.5252Z" fill="#FFF0CB"></path></svg>