<svg xmlns="http://www.w3.org/2000/svg" width="76" height="76" viewBox="0 0 76 76" fill="none"><path d="M17.1598 0.461426C7.95525 0.461426 0.493164 7.92392 0.493164 17.1281V42.1281C0.493164 51.3322 7.95525 58.7947 17.1598 58.7947C17.1598 67.9989 24.6219 75.4614 33.8265 75.4614H58.8265C68.0311 75.4614 75.4931 67.9989 75.4931 58.7947V33.7948C75.4931 24.5906 68.0311 17.1281 58.8265 17.1281C58.8265 7.92392 51.3644 0.461426 42.1598 0.461426H17.1598ZM58.8265 25.4614C63.429 25.4614 67.1598 29.1906 67.1598 33.7948V58.7947C67.1598 63.3989 63.429 67.1281 58.8265 67.1281H33.8265C29.224 67.1281 25.4932 63.3989 25.4932 58.7947H42.1598C51.3644 58.7947 58.8265 51.3322 58.8265 42.1281V25.4614Z" fill="#5AE480"></path></svg>