<svg xmlns="http://www.w3.org/2000/svg" width="70" height="70" viewBox="0 0 70 70" fill="none"><path d="M34.0055 9.41123C34.1316 8.21801 35.8684 8.21801 35.9945 9.41123L37.7534 26.057C37.8367 26.8453 38.7604 27.2279 39.3767 26.7294L52.3908 16.2028C53.3237 15.4482 54.5518 16.6763 53.7972 17.6092L43.2706 30.6233C42.7721 31.2396 43.1547 32.1633 43.943 32.2466L60.5888 34.0055C61.782 34.1316 61.782 35.8684 60.5888 35.9945L43.943 37.7534C43.1547 37.8367 42.7721 38.7604 43.2706 39.3767L53.7972 52.3908C54.5518 53.3237 53.3237 54.5518 52.3908 53.7972L39.3767 43.2706C38.7604 42.7721 37.8367 43.1547 37.7534 43.943L35.9945 60.5888C35.8684 61.782 34.1316 61.782 34.0055 60.5888L32.2466 43.943C32.1633 43.1547 31.2396 42.7721 30.6233 43.2706L17.6092 53.7972C16.6763 54.5518 15.4482 53.3237 16.2028 52.3908L26.7294 39.3767C27.2279 38.7604 26.8453 37.8367 26.057 37.7534L9.41123 35.9945C8.21801 35.8684 8.21801 34.1316 9.41123 34.0055L26.057 32.2466C26.8453 32.1633 27.2279 31.2396 26.7294 30.6233L16.2028 17.6092C15.4482 16.6763 16.6763 15.4482 17.6092 16.2028L30.6233 26.7294C31.2396 27.2279 32.1633 26.8453 32.2466 26.057L34.0055 9.41123Z" fill="#FF7658"></path></svg>