<svg xmlns="http://www.w3.org/2000/svg" width="76" height="76" viewBox="0 0 76 76" fill="none"><path d="M37.9718 0.460938C36.9051 0.460938 35.9218 0.819296 35.1052 1.6318C30.9385 5.79848 5.94264 30.7986 1.7718 34.9652C-0.849035 37.5903 0.925918 42.1277 4.63842 42.1277H17.1384V54.6278C17.1384 56.9278 19.0051 58.7945 21.3051 58.7945H54.6385C56.9385 58.7945 58.8052 56.9278 58.8052 54.6278V42.1277H71.3052C75.0177 42.1277 76.926 37.5903 74.301 34.9652L40.9676 1.6318C40.1509 0.819296 39.0385 0.460938 37.9718 0.460938ZM21.3051 67.1278C19.0051 67.1278 17.1384 68.9945 17.1384 71.2945C17.1384 73.5945 19.0051 75.4612 21.3051 75.4612H54.6385C56.9385 75.4612 58.8052 73.5945 58.8052 71.2945C58.8052 68.9945 56.9385 67.1278 54.6385 67.1278H21.3051Z" fill="#FF69BA"></path></svg>