<svg xmlns="http://www.w3.org/2000/svg" width="230" height="33" viewBox="0 0 230 33" fill="none"><g clip-path="url(#clip0_1439_1134)"><path fill-rule="evenodd" clip-rule="evenodd" d="M223.055 12.5487C223.372 12.378 223.721 12.2147 224.102 12.0551C224.484 11.8968 224.884 11.7846 225.293 11.7212C225.708 11.6584 226.13 11.6479 226.548 11.69C226.977 11.7339 227.39 11.8751 227.755 12.1028C228.041 12.2702 228.29 12.4927 228.49 12.7572C228.689 13.0218 228.833 13.3232 228.915 13.644C229.006 13.9603 229.029 14.2921 228.982 14.6178C228.936 14.9435 228.821 15.2557 228.645 15.5339C228.482 15.8262 228.261 16.0824 227.996 16.287C227.732 16.4917 227.428 16.6406 227.104 16.7247C226.788 16.8156 226.456 16.8386 226.13 16.7921C225.804 16.7456 225.492 16.6307 225.214 16.455C224.921 16.2911 224.665 16.0683 224.463 15.8004C224.26 15.5326 224.116 15.2257 224.038 14.8991C223.958 14.6424 223.931 14.372 223.959 14.1046C223.99 13.8716 224.029 13.6606 224.071 13.4697C224.109 13.3024 224.136 13.1326 224.15 12.9615C224.154 12.884 224.14 12.8068 224.11 12.7353C224.079 12.6639 224.034 12.6001 223.976 12.5487C223.743 12.3542 223.434 12.3542 223.055 12.5487ZM222.26 26.6198C222.256 26.7251 222.273 26.8301 222.312 26.9282C222.35 27.0264 222.408 27.1157 222.482 27.1904C222.557 27.2648 222.647 27.323 222.745 27.3615C222.844 27.3999 222.949 27.4179 223.055 27.4143H216.414C216.52 27.4179 216.625 27.3999 216.724 27.3615C216.822 27.323 216.912 27.2648 216.987 27.1904C217.061 27.1157 217.119 27.0264 217.157 26.9282C217.195 26.8301 217.213 26.7251 217.209 26.6198V12.5487C217.214 12.4431 217.196 12.3377 217.158 12.2392C217.12 12.1407 217.061 12.0512 216.987 11.9765C216.912 11.9017 216.822 11.8434 216.724 11.8051C216.625 11.7668 216.52 11.7495 216.414 11.7542H219.972C220.82 11.7542 221.413 11.9658 221.752 12.389C222.091 12.8123 222.26 13.5321 222.26 14.5486V26.6198ZM200.103 19.565C200.094 18.5285 200.258 17.4978 200.589 16.5155C200.895 15.6018 201.381 14.7588 202.019 14.0367C202.658 13.3258 203.439 12.7565 204.312 12.3652C205.266 11.9412 206.301 11.7302 207.345 11.7469H207.505C206.635 11.8092 206.015 12.2753 205.646 13.145C205.277 14.0147 205.093 15.4758 205.096 17.5283V21.6255C205.096 23.678 205.279 25.1391 205.646 26.0088C206.013 26.8785 206.632 27.3458 207.505 27.4106H207.345C206.301 27.4267 205.266 27.215 204.312 26.7904C203.439 26.3975 202.659 25.8241 202.024 25.1079C201.387 24.379 200.899 23.5317 200.589 22.6144C200.258 21.6321 200.094 20.6014 200.103 19.565ZM208.266 27.3776C208.667 27.3351 209.049 27.1813 209.367 26.9336C209.623 26.7456 209.808 26.4766 209.892 26.1703C209.927 26.0414 209.93 25.9058 209.899 25.7756C209.869 25.6455 209.806 25.5251 209.717 25.4253C209.534 25.2235 209.363 25.0382 209.193 24.8749C208.949 24.6411 208.755 24.3597 208.624 24.0483C208.493 23.7368 208.428 23.4018 208.431 23.064C208.428 22.7346 208.493 22.4082 208.622 22.1049C208.75 21.8016 208.939 21.5279 209.178 21.3007C209.41 21.0603 209.689 20.87 209.998 20.7416C210.306 20.6131 210.638 20.5493 210.972 20.5539C211.635 20.5639 212.267 20.8316 212.736 21.3002C213.204 21.7689 213.471 22.4015 213.481 23.064C213.482 23.6078 213.346 24.1432 213.084 24.6199C212.806 25.1222 212.432 25.5649 211.983 25.9226C211.485 26.3232 210.928 26.6444 210.332 26.8749C209.669 27.1346 208.974 27.3037 208.266 27.3776ZM208.108 11.7817H208.171C209.162 11.8659 210.122 12.1699 210.982 12.6716C211.78 13.1407 212.477 13.7645 213.031 14.5064C213.444 15.0328 213.733 15.6465 213.873 16.3009C213.99 16.8458 213.984 17.4097 213.857 17.9522C213.749 18.4165 213.513 18.8408 213.174 19.176C213.018 19.3309 212.831 19.4529 212.627 19.5349C212.422 19.6168 212.204 19.657 211.983 19.653H208.171C208.617 19.653 209.007 19.376 209.347 18.8256C209.686 18.2751 209.855 17.4916 209.855 16.4752C209.856 15.9326 209.813 15.3909 209.728 14.855C209.652 14.3647 209.535 13.8817 209.378 13.411C209.253 13.0176 209.067 12.6462 208.828 12.3101C208.656 12.0576 208.404 11.8712 208.112 11.7817H208.108ZM189.254 7.97082V26.6161C189.249 26.7216 189.267 26.8269 189.305 26.9253C189.344 27.0237 189.402 27.1131 189.477 27.1877C189.551 27.2624 189.641 27.3208 189.739 27.3591C189.838 27.3975 189.943 27.415 190.048 27.4106H183.41C183.515 27.4145 183.62 27.3966 183.719 27.358C183.817 27.3194 183.906 27.261 183.98 27.1865C184.055 27.1119 184.113 27.0228 184.152 26.9247C184.19 26.8265 184.208 26.7215 184.204 26.6161V5.96905C184.209 5.86354 184.191 5.75827 184.153 5.65988C184.115 5.5615 184.056 5.47214 183.982 5.39747C183.907 5.3228 183.818 5.26444 183.719 5.22607C183.621 5.1877 183.516 5.17017 183.41 5.17458H186.968C187.814 5.17458 188.408 5.38741 188.746 5.80942C189.083 6.23143 189.254 6.95434 189.254 7.97082ZM191.764 12.7523C191.687 12.7951 191.613 12.8422 191.542 12.8936C191.61 12.8441 191.681 12.7964 191.753 12.7505L191.764 12.7523ZM191.753 12.7523C192.06 12.5529 192.382 12.3775 192.716 12.2276C193.153 12.0345 193.612 11.8959 194.083 11.8147C194.578 11.73 195.084 11.7412 195.575 11.8478C196.039 11.9429 196.477 12.1376 196.859 12.4184C197.241 12.7076 197.542 13.0906 197.732 13.5303C197.954 14.0622 198.031 14.6433 197.956 15.2147C197.912 15.8633 197.747 16.498 197.47 17.0861C197.2 17.6743 196.887 18.2421 196.534 18.7852C196.245 19.2357 195.932 19.6706 195.597 20.0879C195.311 20.4377 195.136 20.6549 195.072 20.7393C195.046 20.7984 195.025 20.8598 195.01 20.9227C195.001 20.9696 195.002 21.0177 195.013 21.0641C195.023 21.1105 195.044 21.1542 195.072 21.1924C195.263 21.5117 195.538 21.9618 195.898 22.5429L197.01 24.3373C197.391 24.9489 197.746 25.5159 198.074 26.0382C198.402 26.5556 198.624 26.9115 198.725 27.1024C198.792 27.2084 198.886 27.2941 198.998 27.3501C199.11 27.4061 199.235 27.4302 199.36 27.4198H194.558C194.188 27.4255 193.819 27.388 193.457 27.3079C193.321 27.2834 193.194 27.2258 193.085 27.14C192.977 27.0542 192.892 26.9429 192.837 26.8161C192.604 26.3703 192.357 25.8987 192.092 25.4015C191.828 24.9043 191.573 24.418 191.329 23.9336C191.085 23.4493 190.852 23.0162 190.63 22.5832C190.408 22.1502 190.223 21.7998 190.08 21.5044C190.002 21.3755 189.974 21.223 190.001 21.075C190.067 20.902 190.17 20.745 190.302 20.6145C190.514 20.3393 190.785 19.9631 191.113 19.4861C191.44 19.009 191.774 18.5008 192.112 17.9614C192.453 17.4219 192.758 16.8874 193.03 16.3577C193.271 15.9139 193.463 15.4451 193.602 14.9596C193.726 14.5095 193.748 14.0376 193.667 13.578C193.614 13.2655 193.457 12.9801 193.221 12.7688C193 12.5959 192.721 12.5161 192.443 12.5468C192.203 12.5645 191.97 12.6353 191.76 12.7542L191.753 12.7523ZM174.243 27.4106C174.965 27.3678 175.484 26.854 175.801 25.8694C176.118 24.8847 176.276 23.4713 176.276 21.6291V17.532C176.276 15.6678 176.107 14.2434 175.768 13.2587C175.429 12.2741 174.921 11.7713 174.243 11.7505C175.218 11.7513 176.181 11.9616 177.068 12.3671C177.954 12.7726 178.743 13.3639 179.381 14.1009C179.997 14.8258 180.47 15.6615 180.773 16.5632C181.105 17.5289 181.272 18.5438 181.265 19.565C181.273 20.5964 181.107 21.6218 180.773 22.5979C180.468 23.4999 179.993 24.3355 179.375 25.0602C178.737 25.7964 177.948 26.3871 177.061 26.7926C176.175 27.198 175.212 27.4088 174.238 27.4106H174.243ZM173.801 27.4106C172.827 27.4088 171.864 27.198 170.978 26.7926C170.091 26.3871 169.302 25.7964 168.664 25.0602C168.046 24.3355 167.571 23.4999 167.266 22.5979C166.933 21.6216 166.767 20.5964 166.774 19.565C166.768 18.5439 166.934 17.5291 167.266 16.5632C167.571 15.661 168.045 14.8254 168.664 14.1009C169.302 13.3639 170.09 12.7726 170.977 12.3671C171.863 11.9616 172.826 11.7513 173.801 11.7505C173.124 11.7713 172.615 12.2741 172.276 13.2587C171.938 14.2434 171.768 15.6678 171.768 17.532V21.6291C171.768 23.4713 171.927 24.8847 172.245 25.8694C172.563 26.854 173.082 27.3678 173.801 27.4106ZM157.299 27.4106C158.018 27.3678 158.537 26.854 158.855 25.8694C159.173 24.8847 159.332 23.4713 159.332 21.6291V17.532C159.332 15.6678 159.163 14.2434 158.824 13.2587C158.485 12.2741 157.977 11.7713 157.299 11.7505C158.274 11.7518 159.237 11.9623 160.123 12.3677C161.009 12.7732 161.798 13.3643 162.436 14.1009C163.054 14.8255 163.528 15.6612 163.833 16.5632C164.165 17.5288 164.332 18.5437 164.326 19.565C164.334 20.5965 164.167 21.6219 163.833 22.5979C163.524 23.5007 163.047 24.3363 162.425 25.0602C161.786 25.796 160.997 26.3865 160.111 26.7919C159.225 27.1973 158.262 27.4083 157.288 27.4106H157.299ZM156.853 27.4106C155.879 27.4083 154.916 27.1973 154.03 26.7919C153.144 26.3865 152.355 25.796 151.716 25.0602C151.099 24.335 150.625 23.4995 150.319 22.5979C149.985 21.6219 149.818 20.5965 149.826 19.565C149.82 18.5437 149.987 17.5288 150.319 16.5632C150.625 15.6615 151.099 14.8259 151.716 14.1009C152.354 13.3643 153.143 12.7732 154.029 12.3677C154.915 11.9623 155.878 11.7518 156.853 11.7505C156.175 11.7713 155.667 12.2741 155.328 13.2587C154.99 14.2434 154.82 15.6678 154.82 17.532V21.6291C154.82 23.4713 154.979 24.8847 155.297 25.8694C155.615 26.854 156.133 27.3678 156.851 27.4106H156.853ZM138.322 26.0455C138.54 26.2668 138.8 26.4443 139.085 26.5684C139.355 26.6867 139.647 26.7491 139.942 26.7519C140.789 26.7519 141.457 26.1801 141.944 25.0364C142.43 23.8927 142.663 22.0823 142.641 19.6053C142.636 18.546 142.545 17.4888 142.371 16.444C142.253 15.7019 142.045 14.9768 141.753 14.2844C141.556 13.8033 141.252 13.3738 140.863 13.0294C140.56 12.7686 140.181 12.6128 139.782 12.5854C139.55 12.5424 139.312 12.5531 139.085 12.6166C138.866 12.6832 138.653 12.7686 138.448 12.8716C138.921 12.6056 139.412 12.3721 139.916 12.1725C140.54 11.9276 141.205 11.8061 141.876 11.8147C142.676 11.8122 143.466 12.0009 144.178 12.3652C144.9 12.7383 145.527 13.2703 146.013 13.9211C146.562 14.6579 146.976 15.4859 147.237 16.3669C147.547 17.4186 147.696 18.5109 147.681 19.6072C147.738 20.7394 147.598 21.873 147.268 22.9575C146.99 23.871 146.531 24.7191 145.918 25.451C145.351 26.1188 144.632 26.6415 143.822 26.9758C142.993 27.313 142.1 27.4615 141.206 27.4106C140.635 27.3801 140.078 27.2281 139.571 26.9648C139.109 26.7227 138.686 26.4129 138.316 26.0455H138.322ZM138.068 7.97082V24.6144C138.068 25.6308 137.899 26.3507 137.56 26.7739C137.221 27.1972 136.628 27.4094 135.78 27.4106H132.217C132.323 27.4142 132.428 27.3963 132.527 27.3578C132.625 27.3193 132.715 27.2611 132.79 27.1868C132.864 27.112 132.922 27.0227 132.96 26.9246C132.998 26.8264 133.016 26.7214 133.012 26.6161V5.96905C133.016 5.86347 132.999 5.75807 132.961 5.65956C132.923 5.56105 132.864 5.47158 132.789 5.39685C132.715 5.32212 132.625 5.26377 132.527 5.2255C132.428 5.18723 132.323 5.16989 132.217 5.17458H135.775C136.623 5.17458 137.216 5.38619 137.555 5.80942C137.894 6.23265 138.063 6.95312 138.063 7.97082H138.068ZM115.188 12.7982C116.034 12.3631 116.938 12.054 117.873 11.8808C118.708 11.7094 119.571 11.7257 120.399 11.9285C121.148 12.1221 121.809 12.5647 122.273 13.1835C122.762 13.8184 123.007 14.718 123.007 15.8825V26.6198C123.002 26.7251 123.02 26.8301 123.058 26.9282C123.096 27.0264 123.154 27.1157 123.229 27.1904C123.304 27.2648 123.393 27.323 123.492 27.3615C123.59 27.3999 123.695 27.4179 123.801 27.4143H117.159C117.377 27.4198 117.588 27.3393 117.746 27.1904C117.825 27.1184 117.887 27.03 117.928 26.9315C117.97 26.8329 117.989 26.7266 117.985 26.6198V15.1816C118.007 14.6645 117.915 14.1488 117.715 13.6716C117.569 13.3425 117.338 13.0577 117.047 12.8459C116.786 12.6671 116.474 12.5782 116.157 12.5927C115.825 12.6034 115.497 12.6729 115.188 12.7982ZM108.836 27.4106C108.942 27.415 109.047 27.3975 109.146 27.3591C109.244 27.3208 109.333 27.2624 109.408 27.1877C109.483 27.1131 109.541 27.0237 109.579 26.9253C109.618 26.8269 109.635 26.7216 109.631 26.6161V5.96905C109.636 5.86347 109.618 5.75807 109.58 5.65956C109.542 5.56105 109.483 5.47158 109.409 5.39685C109.334 5.32212 109.244 5.26377 109.146 5.2255C109.047 5.18723 108.942 5.16989 108.836 5.17458H112.394C113.242 5.17458 113.834 5.38619 114.172 5.80942C114.51 6.23265 114.679 6.95312 114.68 7.97082V26.6161C114.676 26.7215 114.694 26.8265 114.733 26.9247C114.771 27.0228 114.83 27.1119 114.904 27.1865C114.979 27.261 115.068 27.3194 115.166 27.358C115.264 27.3966 115.369 27.4145 115.475 27.4106H108.836ZM93.3176 19.565C93.3085 18.5285 93.4728 17.4978 93.8039 16.5155C94.108 15.6012 94.5942 14.7579 95.2332 14.0367C95.8727 13.3257 96.654 12.7563 97.5267 12.3652C98.4809 11.9416 99.5158 11.7306 100.56 11.7469H100.719C99.8508 11.8092 99.2312 12.2753 98.8606 13.145C98.49 14.0147 98.3065 15.4758 98.3101 17.5283V21.6255C98.3101 23.678 98.4936 25.1391 98.8606 26.0088C99.2275 26.8785 99.8471 27.3458 100.719 27.4106H100.56C99.5156 27.4263 98.4807 27.2147 97.5267 26.7904C96.6543 26.3975 95.8751 25.824 95.2405 25.1079C94.6013 24.3801 94.113 23.5325 93.8039 22.6144C93.4731 21.6321 93.3087 20.6014 93.3176 19.565ZM101.481 27.3776C101.882 27.3345 102.263 27.1807 102.582 26.9336C102.838 26.7461 103.022 26.4768 103.104 26.1703C103.14 26.0414 103.143 25.9058 103.112 25.7756C103.082 25.6455 103.019 25.5251 102.93 25.4253C102.747 25.2235 102.576 25.0382 102.405 24.8749C102.162 24.6411 101.968 24.3597 101.837 24.0483C101.706 23.7368 101.64 23.4018 101.644 23.064C101.642 22.7346 101.707 22.4083 101.835 22.1051C101.963 21.8018 102.153 21.5281 102.391 21.3007C102.623 21.0603 102.902 20.87 103.211 20.7416C103.519 20.6131 103.851 20.5493 104.185 20.5539C104.848 20.5643 105.48 20.8321 105.949 21.3006C106.417 21.7691 106.685 22.4015 106.695 23.064C106.696 23.6079 106.559 24.1433 106.297 24.6199C106.019 25.1222 105.645 25.5649 105.196 25.9226C104.698 26.3229 104.141 26.6441 103.545 26.8749C102.882 27.1341 102.188 27.3032 101.481 27.3776ZM101.8 11.8239C101.695 11.8074 101.589 11.7946 101.481 11.7817C101.589 11.7916 101.696 11.8087 101.802 11.8331L101.8 11.8239ZM101.8 11.8239C102.398 11.9118 102.984 12.0682 103.547 12.29C104.142 12.5221 104.699 12.8432 105.198 13.2422C105.646 13.6006 106.02 14.0431 106.299 14.5449C106.558 15.0115 106.695 15.536 106.697 16.0697C106.703 16.4019 106.639 16.7316 106.51 17.0379C106.382 17.3443 106.191 17.6206 105.95 17.8494C105.721 18.084 105.446 18.27 105.143 18.3961C104.84 18.5222 104.515 18.5859 104.187 18.5834C103.854 18.5881 103.523 18.5255 103.215 18.3994C102.907 18.2733 102.627 18.0862 102.393 17.8494C102.152 17.6206 101.961 17.3443 101.832 17.0379C101.704 16.7316 101.64 16.4019 101.646 16.0697C101.645 15.737 101.712 15.4077 101.843 15.1019C101.974 14.7961 102.166 14.5204 102.407 14.2917C102.578 14.1211 102.752 13.9358 102.932 13.7413C103.021 13.6412 103.084 13.5205 103.114 13.39C103.144 13.2596 103.142 13.1237 103.106 12.9945C103.022 12.685 102.838 12.4118 102.583 12.2166C102.359 12.0298 102.093 11.9001 101.807 11.8386L101.8 11.8239ZM90.3783 16.0697V26.5849C90.3739 26.6904 90.3914 26.7956 90.4298 26.8939C90.4682 26.9922 90.5266 27.0814 90.6013 27.1559C90.676 27.2305 90.7654 27.2887 90.8637 27.3268C90.9621 27.365 91.0673 27.3823 91.1728 27.3776H87.6151C86.7466 27.3776 86.1485 27.166 85.8207 26.7427C85.4928 26.3195 85.3289 25.5997 85.3289 24.5832V15.4091C85.3403 14.5615 85.2653 13.715 85.1051 12.8826C84.9583 12.1744 84.6727 11.7988 84.2482 11.756C85.0554 11.7492 85.8592 11.8618 86.6335 12.09C87.3254 12.287 87.9801 12.597 88.571 13.0074C89.0992 13.3745 89.5479 13.8444 89.8902 14.389C90.2091 14.8915 90.3784 15.4745 90.3783 16.0697ZM83.1327 11.8147L83.3272 11.7909C83.2611 11.7872 83.1969 11.7964 83.1327 11.8147ZM83.1327 11.8147C82.7898 11.8608 82.4665 12.0012 82.1988 12.2202C81.9441 12.4154 81.7604 12.6887 81.6758 12.9982C81.6398 13.128 81.6378 13.2648 81.6699 13.3956C81.7021 13.5264 81.7673 13.6467 81.8593 13.745C82.0428 13.945 82.2263 14.1303 82.4006 14.2954C82.6301 14.5229 82.8133 14.7927 82.94 15.0899C83.0675 15.4018 83.13 15.7364 83.1235 16.0733C83.1326 16.4085 83.0744 16.7422 82.9524 17.0545C82.8303 17.3669 82.647 17.6516 82.4131 17.8919C82.1792 18.1322 81.8995 18.3232 81.5906 18.4536C81.2817 18.584 80.9497 18.6512 80.6144 18.6512C80.2791 18.6512 79.9471 18.584 79.6382 18.4536C79.3293 18.3232 79.0496 18.1322 78.8157 17.8919C78.5818 17.6516 78.3985 17.3669 78.2765 17.0545C78.1544 16.7422 78.0963 16.4085 78.1053 16.0733C78.1066 15.5398 78.243 15.0153 78.5016 14.5486C78.7802 14.0468 79.1542 13.6042 79.6025 13.2459C80.1015 12.8466 80.6583 12.5255 81.2538 12.2936C81.8582 12.0579 82.4892 11.897 83.1327 11.8147ZM85.0739 26.0859C84.1759 26.8386 83.0659 27.2932 81.8979 27.3868C81.259 27.4541 80.6132 27.4056 79.9915 27.2436C79.4245 27.0991 78.8976 26.8281 78.4503 26.451C78.0131 26.0754 77.6705 25.6021 77.4503 25.0694C77.2109 24.4643 77.1344 23.807 77.2283 23.163C77.2718 22.5856 77.4571 22.0279 77.7677 21.5392C78.0629 21.0968 78.4278 20.7052 78.8484 20.3796C79.2864 20.0427 79.767 19.765 80.2777 19.554C80.8076 19.3313 81.3483 19.1354 81.8979 18.9668C82.6192 18.7468 83.3202 18.4651 83.9932 18.1247C84.3861 17.9268 84.7498 17.6755 85.0739 17.3779C84.7689 17.7039 84.4395 18.0063 84.0886 18.2824C83.7194 18.5786 83.3889 18.9201 83.1052 19.2989C82.7764 19.7527 82.5242 20.2572 82.3584 20.7925C82.1365 21.5592 82.0362 22.356 82.0611 23.1539C82.0351 23.8091 82.1431 24.4628 82.3786 25.0749C82.5428 25.4881 82.813 25.8507 83.162 26.1262C83.4434 26.3408 83.7922 26.4476 84.1455 26.4272C84.4832 26.4066 84.8068 26.2844 85.0739 26.0767V26.0859ZM60.8839 19.565C60.8774 18.5282 61.0435 17.4977 61.3756 16.5155C61.6808 15.6013 62.1676 14.7582 62.8068 14.0367C63.4438 13.3261 64.2226 12.7567 65.0929 12.3652C66.047 11.9414 67.082 11.7304 68.1258 11.7469H68.2855C67.4182 11.8092 66.7987 12.2753 66.4268 13.145C66.055 14.0147 65.8715 15.4758 65.8764 17.5283V21.6255C65.8764 23.678 66.0599 25.1391 66.4268 26.0088C66.7938 26.8785 67.4133 27.3458 68.2855 27.4106H68.1258C67.0818 27.4265 66.0469 27.2149 65.0929 26.7904C64.2203 26.3979 63.441 25.8244 62.8068 25.1079C62.1703 24.379 61.6839 23.5317 61.3756 22.6144C61.0439 21.6322 60.8777 20.6017 60.8839 19.565ZM69.0469 27.3776C69.4479 27.3345 69.8291 27.1807 70.1478 26.9336C70.4034 26.7456 70.5877 26.4765 70.6707 26.1703C70.705 26.0407 70.7062 25.9045 70.6741 25.7744C70.642 25.6442 70.5778 25.5242 70.4872 25.4253C70.3037 25.2235 70.1331 25.0382 69.9625 24.8749C69.7186 24.6411 69.5252 24.3597 69.3942 24.0483C69.2633 23.7368 69.1975 23.4018 69.201 23.064C69.1986 22.7346 69.2636 22.4083 69.392 22.1051C69.5204 21.8018 69.7096 21.5281 69.9478 21.3007C70.1801 21.0603 70.4591 20.87 70.7677 20.7416C71.0763 20.6131 71.408 20.5493 71.7422 20.5539C72.4047 20.5643 73.0371 20.8321 73.5056 21.3006C73.974 21.7691 74.2418 22.4015 74.2522 23.064C74.2534 23.6079 74.1164 24.1433 73.8541 24.6199C73.5762 25.1222 73.2022 25.5649 72.7532 25.9226C72.2549 26.3229 71.698 26.6441 71.1019 26.8749C70.4424 27.1333 69.7513 27.3024 69.0469 27.3776ZM68.8891 11.7817H68.9515C69.9434 11.8662 70.9042 12.1702 71.7642 12.6716C72.5618 13.1412 73.2579 13.765 73.8119 14.5064C74.2259 15.0324 74.514 15.6462 74.6541 16.3009C74.7714 16.8457 74.7658 17.4098 74.6375 17.9522C74.5303 18.4165 74.2937 18.8408 73.955 19.176C73.7984 19.3309 73.6123 19.4529 73.4078 19.5349C73.2033 19.6168 72.9845 19.657 72.7642 19.653H68.9515C69.3974 19.653 69.7882 19.376 70.1276 18.8256C70.467 18.2751 70.6358 17.4916 70.6358 16.4752C70.6364 15.9326 70.5941 15.3909 70.5092 14.855C70.434 14.3646 70.3167 13.8814 70.1588 13.411C70.0338 13.0176 69.848 12.6462 69.6084 12.3101C69.4361 12.057 69.1822 11.8705 68.8891 11.7817ZM42.0625 27.4106C42.1681 27.4142 42.2734 27.3963 42.3718 27.3578C42.4703 27.3193 42.5598 27.2611 42.635 27.1868C42.7088 27.1117 42.7666 27.0224 42.8048 26.9243C42.8429 26.8262 42.8607 26.7213 42.857 26.6161V5.96905C42.861 5.86298 42.8434 5.75719 42.8053 5.65814C42.7671 5.55908 42.7091 5.46884 42.635 5.39292C42.5592 5.31985 42.4694 5.26284 42.371 5.22532C42.2726 5.1878 42.1677 5.17054 42.0625 5.17458H48.7008C48.5953 5.17017 48.49 5.1877 48.3916 5.22607C48.2933 5.26444 48.2039 5.3228 48.1292 5.39747C48.0546 5.47214 47.9962 5.5615 47.9578 5.65988C47.9195 5.75827 47.9019 5.86354 47.9063 5.96905V26.6161C47.9025 26.7215 47.9204 26.8265 47.959 26.9247C47.9975 27.0228 48.0559 27.1119 48.1305 27.1865C48.205 27.261 48.2941 27.3194 48.3923 27.358C48.4904 27.3966 48.5954 27.4145 48.7008 27.4106H42.0625ZM50.3852 15.5944C50.6784 15.5072 50.9456 15.349 51.1631 15.1339C51.465 14.8404 51.7134 14.4964 51.897 14.1174C52.1407 13.6163 52.3254 13.0887 52.4475 12.545C52.6038 11.8571 52.6783 11.1532 52.6695 10.4478C52.6795 9.68936 52.5994 8.93242 52.431 8.19284C52.303 7.6162 52.0949 7.06035 51.8126 6.54151C51.6046 6.15325 51.3243 5.80825 50.987 5.52503C50.7504 5.31631 50.4506 5.19292 50.1356 5.17458H52.1007C52.7479 5.17285 53.3875 5.31381 53.974 5.58741C54.5549 5.85395 55.0741 6.23819 55.4987 6.71581C56.3055 7.65816 56.79 8.83369 56.8814 10.0708C56.9728 11.308 56.6665 12.542 56.007 13.5927C55.4717 14.4502 54.7097 15.143 53.8052 15.5944C54.4545 15.6944 55.0778 15.9207 55.64 16.2605C56.2056 16.6002 56.7033 17.0419 57.1079 17.5632C57.5274 18.1039 57.8547 18.7102 58.0766 19.3576C58.3119 20.0367 58.4304 20.7508 58.4271 21.4695C58.4369 23.0209 57.8707 24.5207 56.8381 25.6786C56.3577 26.2135 55.7742 26.646 55.1226 26.9501C54.4651 27.2575 53.7475 27.4148 53.0218 27.4106H50.5429C50.8938 27.3895 51.2284 27.2557 51.497 27.029C51.8783 26.721 52.1908 26.3367 52.4144 25.9006C52.7229 25.3145 52.9525 24.6901 53.097 24.0437C53.2875 23.2011 53.3781 22.3389 53.3667 21.475C53.3824 20.6119 53.283 19.7505 53.0713 18.9136C52.9074 18.2708 52.6562 17.6534 52.3245 17.0788C52.0769 16.6488 51.7478 16.2711 51.3558 15.9669C51.0792 15.7443 50.7397 15.614 50.3852 15.5944Z" fill="#93979B"></path><path fill-rule="evenodd" clip-rule="evenodd" d="M18.659 14.829C19.0402 14.4789 19.3908 13.9915 19.7109 13.3668C20.065 12.6464 20.3334 11.8869 20.5107 11.104C20.7353 10.1145 20.8425 9.10193 20.8302 8.08729C20.8302 6.86673 20.7159 5.78487 20.4874 4.84171C20.2588 3.89854 19.9609 3.10657 19.5936 2.46577C19.2285 1.82608 18.8338 1.3373 18.4094 0.99943C17.9849 0.661556 17.5724 0.495116 17.1719 0.500109H20.0014C20.9329 0.497184 21.8537 0.700082 22.6977 1.0943C23.5334 1.47751 24.2804 2.03011 24.8914 2.71709C26.1899 4.20465 26.9045 6.11276 26.9028 8.08729C26.9028 9.79442 26.4762 11.3026 25.6229 12.612C24.7696 13.9213 23.7185 14.8814 22.4697 15.4922C23.3996 15.6387 24.2922 15.9646 25.0978 16.4518C25.9079 16.9417 26.6206 17.5771 27.1999 18.3259C27.803 19.1035 28.2739 19.9751 28.5939 20.9057C28.9309 21.8833 29.0997 22.9109 29.0932 23.9449C29.1106 26.177 28.2986 28.336 26.8146 30.0033C26.1239 30.774 25.2843 31.3968 24.3463 31.8342C23.4025 32.277 22.3721 32.5044 21.3296 32.4999H17.7652C18.1919 32.4999 18.649 32.3171 19.1367 31.9515C19.6244 31.5859 20.0663 31.045 20.4624 30.3287C20.8585 29.6119 21.1861 28.7206 21.4452 27.6549C21.7043 26.5891 21.8339 25.3549 21.8339 23.9524C21.8339 22.551 21.6891 21.3246 21.3995 20.2732C21.1099 19.2219 20.7512 18.3453 20.3234 17.6435C19.8968 16.9428 19.4321 16.4096 18.9295 16.044C18.4268 15.6784 17.9622 15.4956 17.5355 15.4956C17.9023 15.4018 18.2768 15.1796 18.659 14.829Z" fill="#93979B"></path><path fill-rule="evenodd" clip-rule="evenodd" d="M14.2797 0.603516L14.2323 0.608509C14.1235 0.62276 14.023 0.673794 13.9473 0.753127C13.8716 0.832459 13.8253 0.935311 13.8162 1.04458L13.0472 9.15856L12.3565 1.38579C12.352 1.33129 12.3357 1.27842 12.3087 1.23088C12.2817 1.18335 12.2446 1.14229 12.2 1.11058C12.1555 1.07888 12.1046 1.05729 12.0508 1.04732C11.997 1.03736 11.9417 1.03926 11.8888 1.0529C11.5004 1.1561 11.1171 1.27372 10.7387 1.40576C10.6502 1.4373 10.573 1.49408 10.5165 1.56908C10.46 1.64407 10.4267 1.73398 10.4208 1.82769L10.3559 20.1037L8.76054 3.03271C8.75506 2.95113 8.72895 2.87228 8.68465 2.80355C8.64035 2.73482 8.57932 2.67847 8.50728 2.63979C8.43524 2.60111 8.35456 2.58136 8.2728 2.5824C8.19104 2.58344 8.11088 2.60524 8.03985 2.64574C6.0515 3.78976 4.3317 5.34701 2.99652 7.2124C1.66134 9.07778 0.741865 11.2079 0.300143 13.4589C-0.141579 15.71 -0.0952657 18.0296 0.435958 20.2612C0.967181 22.4928 1.97095 24.5845 3.37952 26.3951C3.41955 26.4456 3.474 26.4827 3.53562 26.5014C3.59724 26.5202 3.66311 26.5197 3.72447 26.5001C3.78582 26.4805 3.83975 26.4427 3.87907 26.3917C3.9184 26.3407 3.94125 26.2789 3.94459 26.2146L4.90495 15.2411L5.79623 28.0063C5.80917 28.3034 5.88828 28.5938 6.02779 28.8564C6.16731 29.119 6.3637 29.3472 6.60264 29.5242C7.75734 30.3649 9.01933 31.0472 10.355 31.5531C10.4305 31.5818 10.5117 31.5925 10.5921 31.5844C10.6725 31.5762 10.7498 31.5494 10.818 31.5061C10.8862 31.4628 10.9433 31.4042 10.9849 31.3349C11.0265 31.2656 11.0513 31.1876 11.0574 31.1071L11.7781 22.1942L12.5079 31.8186C12.5161 31.9308 12.5607 32.0373 12.6349 32.1218C12.7091 32.2064 12.8089 32.2644 12.919 32.2871C13.3662 32.3759 13.8198 32.4461 14.2797 32.4977V0.603516Z" fill="#93979B"></path></g><defs><clipPath id="clip0_1439_1134"><rect width="230" height="32" fill="white" transform="translate(0 0.5)"></rect></clipPath></defs></svg>